# xmcd
#
# Track frame offsets: 
#        182
#        36670
#        55200
#        82847
#        121015
#        134892
#        147605
#        154432
#        171787
#        193345
#        211552
#        228872
#        256957
#
# Disc length: 3581 seconds
#
# Revision: 0
# Processed by: cddbd v1.5.2PL0 Copyright (c) Steve Scherf et al.
# Submitted via: ExactAudioCopy v0.99pb4
#
DISCID=be0dfb0d
DTITLE=Various Artist - Monterey Pop '67 The Summer of Love
DYEAR=1991
DGENRE=Rock
TTITLE0=Animals - Paint it black
TTITLE1=Animals - San Francisco night
TTITLE2=Animals - Ginhouse blues
TTITLE3=Animals - Hey Gyp
TTITLE4=Paul Butterfield Blues Band - Marianne
TTITLE5=Paul Butterfield Blues Band - Look over yonder wall
TTITLE6=Paul Butterfield Blues Band - Droppin' out
TTITLE7=Paul Butterfield Blues Band - Born in Chicago
TTITLE8=Paul Butterfield Blues Band - Driftin' blues
TTITLE9=Paul Butterfield Blues Band - One more heartache
TTITLE10=Lou Rawls - Dead end street
TTITLE11=Lou Rawls - Tobacco road
TTITLE12=Johnny Rivers - Memphis
EXTD=
EXTT0=
EXTT1=
EXTT2=
EXTT3=
EXTT4=
EXTT5=
EXTT6=
EXTT7=
EXTT8=
EXTT9=
EXTT10=
EXTT11=
EXTT12=
PLAYORDER=
